%TF.GenerationSoftware,KiCad,Pcbnew,10.0.3*%
%TF.CreationDate,2026-06-26T14:54:03+05:30*%
%TF.ProjectId,Rectifier-1,52656374-6966-4696-9572-2d312e6b6963,rev?*%
%TF.SameCoordinates,Original*%
%TF.FileFunction,Legend,Top*%
%TF.FilePolarity,Positive*%
%FSLAX46Y46*%
G04 Gerber Fmt 4.6, Leading zero omitted, Abs format (unit mm)*
G04 Created by KiCad (PCBNEW 10.0.3) date 2026-06-26 14:54:03*
%MOMM*%
%LPD*%
G01*
G04 APERTURE LIST*
%ADD10C,0.100000*%
%ADD11C,0.150000*%
%ADD12C,0.120000*%
G04 APERTURE END LIST*
D10*
X188875312Y-66872419D02*
X188541979Y-66396228D01*
X188303884Y-66872419D02*
X188303884Y-65872419D01*
X188303884Y-65872419D02*
X188684836Y-65872419D01*
X188684836Y-65872419D02*
X188780074Y-65920038D01*
X188780074Y-65920038D02*
X188827693Y-65967657D01*
X188827693Y-65967657D02*
X188875312Y-66062895D01*
X188875312Y-66062895D02*
X188875312Y-66205752D01*
X188875312Y-66205752D02*
X188827693Y-66300990D01*
X188827693Y-66300990D02*
X188780074Y-66348609D01*
X188780074Y-66348609D02*
X188684836Y-66396228D01*
X188684836Y-66396228D02*
X188303884Y-66396228D01*
X189303884Y-66348609D02*
X189637217Y-66348609D01*
X189780074Y-66872419D02*
X189303884Y-66872419D01*
X189303884Y-66872419D02*
X189303884Y-65872419D01*
X189303884Y-65872419D02*
X189780074Y-65872419D01*
X190780074Y-66777180D02*
X190732455Y-66824800D01*
X190732455Y-66824800D02*
X190589598Y-66872419D01*
X190589598Y-66872419D02*
X190494360Y-66872419D01*
X190494360Y-66872419D02*
X190351503Y-66824800D01*
X190351503Y-66824800D02*
X190256265Y-66729561D01*
X190256265Y-66729561D02*
X190208646Y-66634323D01*
X190208646Y-66634323D02*
X190161027Y-66443847D01*
X190161027Y-66443847D02*
X190161027Y-66300990D01*
X190161027Y-66300990D02*
X190208646Y-66110514D01*
X190208646Y-66110514D02*
X190256265Y-66015276D01*
X190256265Y-66015276D02*
X190351503Y-65920038D01*
X190351503Y-65920038D02*
X190494360Y-65872419D01*
X190494360Y-65872419D02*
X190589598Y-65872419D01*
X190589598Y-65872419D02*
X190732455Y-65920038D01*
X190732455Y-65920038D02*
X190780074Y-65967657D01*
X191065789Y-65872419D02*
X191637217Y-65872419D01*
X191351503Y-66872419D02*
X191351503Y-65872419D01*
X191970551Y-66872419D02*
X191970551Y-65872419D01*
X192780074Y-66348609D02*
X192446741Y-66348609D01*
X192446741Y-66872419D02*
X192446741Y-65872419D01*
X192446741Y-65872419D02*
X192922931Y-65872419D01*
X193303884Y-66872419D02*
X193303884Y-65872419D01*
X193780074Y-66348609D02*
X194113407Y-66348609D01*
X194256264Y-66872419D02*
X193780074Y-66872419D01*
X193780074Y-66872419D02*
X193780074Y-65872419D01*
X193780074Y-65872419D02*
X194256264Y-65872419D01*
X195256264Y-66872419D02*
X194922931Y-66396228D01*
X194684836Y-66872419D02*
X194684836Y-65872419D01*
X194684836Y-65872419D02*
X195065788Y-65872419D01*
X195065788Y-65872419D02*
X195161026Y-65920038D01*
X195161026Y-65920038D02*
X195208645Y-65967657D01*
X195208645Y-65967657D02*
X195256264Y-66062895D01*
X195256264Y-66062895D02*
X195256264Y-66205752D01*
X195256264Y-66205752D02*
X195208645Y-66300990D01*
X195208645Y-66300990D02*
X195161026Y-66348609D01*
X195161026Y-66348609D02*
X195065788Y-66396228D01*
X195065788Y-66396228D02*
X194684836Y-66396228D01*
D11*
X135484819Y-102818094D02*
X134484819Y-102818094D01*
X134484819Y-102818094D02*
X134484819Y-102579999D01*
X134484819Y-102579999D02*
X134532438Y-102437142D01*
X134532438Y-102437142D02*
X134627676Y-102341904D01*
X134627676Y-102341904D02*
X134722914Y-102294285D01*
X134722914Y-102294285D02*
X134913390Y-102246666D01*
X134913390Y-102246666D02*
X135056247Y-102246666D01*
X135056247Y-102246666D02*
X135246723Y-102294285D01*
X135246723Y-102294285D02*
X135341961Y-102341904D01*
X135341961Y-102341904D02*
X135437200Y-102437142D01*
X135437200Y-102437142D02*
X135484819Y-102579999D01*
X135484819Y-102579999D02*
X135484819Y-102818094D01*
X134580057Y-101865713D02*
X134532438Y-101818094D01*
X134532438Y-101818094D02*
X134484819Y-101722856D01*
X134484819Y-101722856D02*
X134484819Y-101484761D01*
X134484819Y-101484761D02*
X134532438Y-101389523D01*
X134532438Y-101389523D02*
X134580057Y-101341904D01*
X134580057Y-101341904D02*
X134675295Y-101294285D01*
X134675295Y-101294285D02*
X134770533Y-101294285D01*
X134770533Y-101294285D02*
X134913390Y-101341904D01*
X134913390Y-101341904D02*
X135484819Y-101913332D01*
X135484819Y-101913332D02*
X135484819Y-101294285D01*
X135854819Y-107421904D02*
X134854819Y-107421904D01*
X135854819Y-106850476D02*
X135283390Y-107279047D01*
X134854819Y-106850476D02*
X135426247Y-107421904D01*
X167109580Y-89298989D02*
X167157200Y-89346608D01*
X167157200Y-89346608D02*
X167204819Y-89489465D01*
X167204819Y-89489465D02*
X167204819Y-89584703D01*
X167204819Y-89584703D02*
X167157200Y-89727560D01*
X167157200Y-89727560D02*
X167061961Y-89822798D01*
X167061961Y-89822798D02*
X166966723Y-89870417D01*
X166966723Y-89870417D02*
X166776247Y-89918036D01*
X166776247Y-89918036D02*
X166633390Y-89918036D01*
X166633390Y-89918036D02*
X166442914Y-89870417D01*
X166442914Y-89870417D02*
X166347676Y-89822798D01*
X166347676Y-89822798D02*
X166252438Y-89727560D01*
X166252438Y-89727560D02*
X166204819Y-89584703D01*
X166204819Y-89584703D02*
X166204819Y-89489465D01*
X166204819Y-89489465D02*
X166252438Y-89346608D01*
X166252438Y-89346608D02*
X166300057Y-89298989D01*
X167204819Y-88346608D02*
X167204819Y-88918036D01*
X167204819Y-88632322D02*
X166204819Y-88632322D01*
X166204819Y-88632322D02*
X166347676Y-88727560D01*
X166347676Y-88727560D02*
X166442914Y-88822798D01*
X166442914Y-88822798D02*
X166490533Y-88918036D01*
X176374819Y-89206666D02*
X175898628Y-89539999D01*
X176374819Y-89778094D02*
X175374819Y-89778094D01*
X175374819Y-89778094D02*
X175374819Y-89397142D01*
X175374819Y-89397142D02*
X175422438Y-89301904D01*
X175422438Y-89301904D02*
X175470057Y-89254285D01*
X175470057Y-89254285D02*
X175565295Y-89206666D01*
X175565295Y-89206666D02*
X175708152Y-89206666D01*
X175708152Y-89206666D02*
X175803390Y-89254285D01*
X175803390Y-89254285D02*
X175851009Y-89301904D01*
X175851009Y-89301904D02*
X175898628Y-89397142D01*
X175898628Y-89397142D02*
X175898628Y-89778094D01*
X176374819Y-88254285D02*
X176374819Y-88825713D01*
X176374819Y-88539999D02*
X175374819Y-88539999D01*
X175374819Y-88539999D02*
X175517676Y-88635237D01*
X175517676Y-88635237D02*
X175612914Y-88730475D01*
X175612914Y-88730475D02*
X175660533Y-88825713D01*
X118834819Y-89083333D02*
X119549104Y-89083333D01*
X119549104Y-89083333D02*
X119691961Y-89130952D01*
X119691961Y-89130952D02*
X119787200Y-89226190D01*
X119787200Y-89226190D02*
X119834819Y-89369047D01*
X119834819Y-89369047D02*
X119834819Y-89464285D01*
X119834819Y-88083333D02*
X119834819Y-88654761D01*
X119834819Y-88369047D02*
X118834819Y-88369047D01*
X118834819Y-88369047D02*
X118977676Y-88464285D01*
X118977676Y-88464285D02*
X119072914Y-88559523D01*
X119072914Y-88559523D02*
X119120533Y-88654761D01*
X135984819Y-76818094D02*
X134984819Y-76818094D01*
X134984819Y-76818094D02*
X134984819Y-76579999D01*
X134984819Y-76579999D02*
X135032438Y-76437142D01*
X135032438Y-76437142D02*
X135127676Y-76341904D01*
X135127676Y-76341904D02*
X135222914Y-76294285D01*
X135222914Y-76294285D02*
X135413390Y-76246666D01*
X135413390Y-76246666D02*
X135556247Y-76246666D01*
X135556247Y-76246666D02*
X135746723Y-76294285D01*
X135746723Y-76294285D02*
X135841961Y-76341904D01*
X135841961Y-76341904D02*
X135937200Y-76437142D01*
X135937200Y-76437142D02*
X135984819Y-76579999D01*
X135984819Y-76579999D02*
X135984819Y-76818094D01*
X135984819Y-75294285D02*
X135984819Y-75865713D01*
X135984819Y-75579999D02*
X134984819Y-75579999D01*
X134984819Y-75579999D02*
X135127676Y-75675237D01*
X135127676Y-75675237D02*
X135222914Y-75770475D01*
X135222914Y-75770475D02*
X135270533Y-75865713D01*
X136354819Y-81421904D02*
X135354819Y-81421904D01*
X136354819Y-80850476D02*
X135783390Y-81279047D01*
X135354819Y-80850476D02*
X135926247Y-81421904D01*
X189607319Y-89333333D02*
X190321604Y-89333333D01*
X190321604Y-89333333D02*
X190464461Y-89380952D01*
X190464461Y-89380952D02*
X190559700Y-89476190D01*
X190559700Y-89476190D02*
X190607319Y-89619047D01*
X190607319Y-89619047D02*
X190607319Y-89714285D01*
X189702557Y-88904761D02*
X189654938Y-88857142D01*
X189654938Y-88857142D02*
X189607319Y-88761904D01*
X189607319Y-88761904D02*
X189607319Y-88523809D01*
X189607319Y-88523809D02*
X189654938Y-88428571D01*
X189654938Y-88428571D02*
X189702557Y-88380952D01*
X189702557Y-88380952D02*
X189797795Y-88333333D01*
X189797795Y-88333333D02*
X189893033Y-88333333D01*
X189893033Y-88333333D02*
X190035890Y-88380952D01*
X190035890Y-88380952D02*
X190607319Y-88952380D01*
X190607319Y-88952380D02*
X190607319Y-88333333D01*
X152924819Y-102818094D02*
X151924819Y-102818094D01*
X151924819Y-102818094D02*
X151924819Y-102579999D01*
X151924819Y-102579999D02*
X151972438Y-102437142D01*
X151972438Y-102437142D02*
X152067676Y-102341904D01*
X152067676Y-102341904D02*
X152162914Y-102294285D01*
X152162914Y-102294285D02*
X152353390Y-102246666D01*
X152353390Y-102246666D02*
X152496247Y-102246666D01*
X152496247Y-102246666D02*
X152686723Y-102294285D01*
X152686723Y-102294285D02*
X152781961Y-102341904D01*
X152781961Y-102341904D02*
X152877200Y-102437142D01*
X152877200Y-102437142D02*
X152924819Y-102579999D01*
X152924819Y-102579999D02*
X152924819Y-102818094D01*
X152258152Y-101389523D02*
X152924819Y-101389523D01*
X151877200Y-101627618D02*
X152591485Y-101865713D01*
X152591485Y-101865713D02*
X152591485Y-101246666D01*
X152554819Y-97261904D02*
X151554819Y-97261904D01*
X152554819Y-96690476D02*
X151983390Y-97119047D01*
X151554819Y-96690476D02*
X152126247Y-97261904D01*
X152424819Y-76318094D02*
X151424819Y-76318094D01*
X151424819Y-76318094D02*
X151424819Y-76079999D01*
X151424819Y-76079999D02*
X151472438Y-75937142D01*
X151472438Y-75937142D02*
X151567676Y-75841904D01*
X151567676Y-75841904D02*
X151662914Y-75794285D01*
X151662914Y-75794285D02*
X151853390Y-75746666D01*
X151853390Y-75746666D02*
X151996247Y-75746666D01*
X151996247Y-75746666D02*
X152186723Y-75794285D01*
X152186723Y-75794285D02*
X152281961Y-75841904D01*
X152281961Y-75841904D02*
X152377200Y-75937142D01*
X152377200Y-75937142D02*
X152424819Y-76079999D01*
X152424819Y-76079999D02*
X152424819Y-76318094D01*
X151424819Y-75413332D02*
X151424819Y-74794285D01*
X151424819Y-74794285D02*
X151805771Y-75127618D01*
X151805771Y-75127618D02*
X151805771Y-74984761D01*
X151805771Y-74984761D02*
X151853390Y-74889523D01*
X151853390Y-74889523D02*
X151901009Y-74841904D01*
X151901009Y-74841904D02*
X151996247Y-74794285D01*
X151996247Y-74794285D02*
X152234342Y-74794285D01*
X152234342Y-74794285D02*
X152329580Y-74841904D01*
X152329580Y-74841904D02*
X152377200Y-74889523D01*
X152377200Y-74889523D02*
X152424819Y-74984761D01*
X152424819Y-74984761D02*
X152424819Y-75270475D01*
X152424819Y-75270475D02*
X152377200Y-75365713D01*
X152377200Y-75365713D02*
X152329580Y-75413332D01*
X152054819Y-70761904D02*
X151054819Y-70761904D01*
X152054819Y-70190476D02*
X151483390Y-70619047D01*
X151054819Y-70190476D02*
X151626247Y-70761904D01*
%TO.C,D2*%
D12*
X136030000Y-99360000D02*
X138970000Y-99360000D01*
X138970000Y-104800000D01*
X136030000Y-104800000D01*
X136030000Y-99360000D01*
X137500000Y-98340000D02*
X137500000Y-99360000D01*
X136030000Y-103780000D02*
X138970000Y-103780000D01*
X136030000Y-103900000D02*
X138970000Y-103900000D01*
X136030000Y-104020000D02*
X138970000Y-104020000D01*
X137500000Y-105820000D02*
X137500000Y-104800000D01*
%TO.C,C1*%
X163375000Y-83652677D02*
X163375000Y-84652677D01*
X163875000Y-84152677D02*
X162875000Y-84152677D01*
X165580000Y-89132323D02*
X155420000Y-89132323D01*
X165580000Y-89172323D02*
X155420000Y-89172323D01*
X165579000Y-89212323D02*
X155421000Y-89212323D01*
X165579000Y-89252323D02*
X155421000Y-89252323D01*
X165577000Y-89292323D02*
X155423000Y-89292323D01*
X165576000Y-89332323D02*
X155424000Y-89332323D01*
X165574000Y-89372323D02*
X155426000Y-89372323D01*
X165572000Y-89412323D02*
X155428000Y-89412323D01*
X165570000Y-89452323D02*
X155430000Y-89452323D01*
X165567000Y-89492323D02*
X155433000Y-89492323D01*
X165564000Y-89532323D02*
X155436000Y-89532323D01*
X165561000Y-89572323D02*
X155439000Y-89572323D01*
X165557000Y-89612323D02*
X155443000Y-89612323D01*
X165554000Y-89652323D02*
X155446000Y-89652323D01*
X165549000Y-89692323D02*
X155451000Y-89692323D01*
X165545000Y-89732323D02*
X155455000Y-89732323D01*
X165540000Y-89772323D02*
X155460000Y-89772323D01*
X165535000Y-89812323D02*
X161740000Y-89812323D01*
X159260000Y-89812323D02*
X155465000Y-89812323D01*
X165529000Y-89852323D02*
X161740000Y-89852323D01*
X159260000Y-89852323D02*
X155471000Y-89852323D01*
X165523000Y-89892323D02*
X161740000Y-89892323D01*
X159260000Y-89892323D02*
X155477000Y-89892323D01*
X165517000Y-89932323D02*
X161740000Y-89932323D01*
X159260000Y-89932323D02*
X155483000Y-89932323D01*
X165511000Y-89972323D02*
X161740000Y-89972323D01*
X159260000Y-89972323D02*
X155489000Y-89972323D01*
X165504000Y-90012323D02*
X161740000Y-90012323D01*
X159260000Y-90012323D02*
X155496000Y-90012323D01*
X165497000Y-90052323D02*
X161740000Y-90052323D01*
X159260000Y-90052323D02*
X155503000Y-90052323D01*
X165489000Y-90092323D02*
X161740000Y-90092323D01*
X159260000Y-90092323D02*
X155511000Y-90092323D01*
X165481000Y-90132323D02*
X161740000Y-90132323D01*
X159260000Y-90132323D02*
X155519000Y-90132323D01*
X165473000Y-90172323D02*
X161740000Y-90172323D01*
X159260000Y-90172323D02*
X155527000Y-90172323D01*
X165465000Y-90212323D02*
X161740000Y-90212323D01*
X159260000Y-90212323D02*
X155535000Y-90212323D01*
X165456000Y-90252323D02*
X161740000Y-90252323D01*
X159260000Y-90252323D02*
X155544000Y-90252323D01*
X165447000Y-90292323D02*
X161740000Y-90292323D01*
X159260000Y-90292323D02*
X155553000Y-90292323D01*
X165437000Y-90332323D02*
X161740000Y-90332323D01*
X159260000Y-90332323D02*
X155563000Y-90332323D01*
X165428000Y-90372323D02*
X161740000Y-90372323D01*
X159260000Y-90372323D02*
X155572000Y-90372323D01*
X165417000Y-90412323D02*
X161740000Y-90412323D01*
X159260000Y-90412323D02*
X155583000Y-90412323D01*
X165407000Y-90452323D02*
X161740000Y-90452323D01*
X159260000Y-90452323D02*
X155593000Y-90452323D01*
X165396000Y-90492323D02*
X161740000Y-90492323D01*
X159260000Y-90492323D02*
X155604000Y-90492323D01*
X165385000Y-90532323D02*
X161740000Y-90532323D01*
X159260000Y-90532323D02*
X155615000Y-90532323D01*
X165373000Y-90572323D02*
X161740000Y-90572323D01*
X159260000Y-90572323D02*
X155627000Y-90572323D01*
X165361000Y-90612323D02*
X161740000Y-90612323D01*
X159260000Y-90612323D02*
X155639000Y-90612323D01*
X165349000Y-90652323D02*
X161740000Y-90652323D01*
X159260000Y-90652323D02*
X155651000Y-90652323D01*
X165337000Y-90692323D02*
X161740000Y-90692323D01*
X159260000Y-90692323D02*
X155663000Y-90692323D01*
X165324000Y-90732323D02*
X161740000Y-90732323D01*
X159260000Y-90732323D02*
X155676000Y-90732323D01*
X165310000Y-90772323D02*
X161740000Y-90772323D01*
X159260000Y-90772323D02*
X155690000Y-90772323D01*
X165297000Y-90812323D02*
X161740000Y-90812323D01*
X159260000Y-90812323D02*
X155703000Y-90812323D01*
X165282000Y-90852323D02*
X161740000Y-90852323D01*
X159260000Y-90852323D02*
X155718000Y-90852323D01*
X165268000Y-90892323D02*
X161740000Y-90892323D01*
X159260000Y-90892323D02*
X155732000Y-90892323D01*
X165253000Y-90932323D02*
X161740000Y-90932323D01*
X159260000Y-90932323D02*
X155747000Y-90932323D01*
X165238000Y-90972323D02*
X161740000Y-90972323D01*
X159260000Y-90972323D02*
X155762000Y-90972323D01*
X165222000Y-91012323D02*
X161740000Y-91012323D01*
X159260000Y-91012323D02*
X155778000Y-91012323D01*
X165206000Y-91052323D02*
X161740000Y-91052323D01*
X159260000Y-91052323D02*
X155794000Y-91052323D01*
X165190000Y-91092323D02*
X161740000Y-91092323D01*
X159260000Y-91092323D02*
X155810000Y-91092323D01*
X165173000Y-91132323D02*
X161740000Y-91132323D01*
X159260000Y-91132323D02*
X155827000Y-91132323D01*
X165156000Y-91172323D02*
X161740000Y-91172323D01*
X159260000Y-91172323D02*
X155844000Y-91172323D01*
X165138000Y-91212323D02*
X161740000Y-91212323D01*
X159260000Y-91212323D02*
X155862000Y-91212323D01*
X165120000Y-91252323D02*
X161740000Y-91252323D01*
X159260000Y-91252323D02*
X155880000Y-91252323D01*
X165102000Y-91292323D02*
X161740000Y-91292323D01*
X159260000Y-91292323D02*
X155898000Y-91292323D01*
X165083000Y-91332323D02*
X161740000Y-91332323D01*
X159260000Y-91332323D02*
X155917000Y-91332323D01*
X165064000Y-91372323D02*
X161740000Y-91372323D01*
X159260000Y-91372323D02*
X155936000Y-91372323D01*
X165044000Y-91412323D02*
X161740000Y-91412323D01*
X159260000Y-91412323D02*
X155956000Y-91412323D01*
X165024000Y-91452323D02*
X161740000Y-91452323D01*
X159260000Y-91452323D02*
X155976000Y-91452323D01*
X165004000Y-91492323D02*
X161740000Y-91492323D01*
X159260000Y-91492323D02*
X155996000Y-91492323D01*
X164983000Y-91532323D02*
X161740000Y-91532323D01*
X159260000Y-91532323D02*
X156017000Y-91532323D01*
X164961000Y-91572323D02*
X161740000Y-91572323D01*
X159260000Y-91572323D02*
X156039000Y-91572323D01*
X164939000Y-91612323D02*
X161740000Y-91612323D01*
X159260000Y-91612323D02*
X156061000Y-91612323D01*
X164917000Y-91652323D02*
X161740000Y-91652323D01*
X159260000Y-91652323D02*
X156083000Y-91652323D01*
X164894000Y-91692323D02*
X161740000Y-91692323D01*
X159260000Y-91692323D02*
X156106000Y-91692323D01*
X164871000Y-91732323D02*
X161740000Y-91732323D01*
X159260000Y-91732323D02*
X156129000Y-91732323D01*
X164847000Y-91772323D02*
X161740000Y-91772323D01*
X159260000Y-91772323D02*
X156153000Y-91772323D01*
X164823000Y-91812323D02*
X161740000Y-91812323D01*
X159260000Y-91812323D02*
X156177000Y-91812323D01*
X164798000Y-91852323D02*
X161740000Y-91852323D01*
X159260000Y-91852323D02*
X156202000Y-91852323D01*
X164772000Y-91892323D02*
X161740000Y-91892323D01*
X159260000Y-91892323D02*
X156228000Y-91892323D01*
X164747000Y-91932323D02*
X161740000Y-91932323D01*
X159260000Y-91932323D02*
X156253000Y-91932323D01*
X164720000Y-91972323D02*
X161740000Y-91972323D01*
X159260000Y-91972323D02*
X156280000Y-91972323D01*
X164693000Y-92012323D02*
X161740000Y-92012323D01*
X159260000Y-92012323D02*
X156307000Y-92012323D01*
X164666000Y-92052323D02*
X161740000Y-92052323D01*
X159260000Y-92052323D02*
X156334000Y-92052323D01*
X164638000Y-92092323D02*
X161740000Y-92092323D01*
X159260000Y-92092323D02*
X156362000Y-92092323D01*
X164609000Y-92132323D02*
X161740000Y-92132323D01*
X159260000Y-92132323D02*
X156391000Y-92132323D01*
X164580000Y-92172323D02*
X161740000Y-92172323D01*
X159260000Y-92172323D02*
X156420000Y-92172323D01*
X164550000Y-92212323D02*
X161740000Y-92212323D01*
X159260000Y-92212323D02*
X156450000Y-92212323D01*
X164520000Y-92252323D02*
X161740000Y-92252323D01*
X159260000Y-92252323D02*
X156480000Y-92252323D01*
X164488000Y-92292323D02*
X156512000Y-92292323D01*
X164457000Y-92332323D02*
X156543000Y-92332323D01*
X164424000Y-92372323D02*
X156576000Y-92372323D01*
X164391000Y-92412323D02*
X156609000Y-92412323D01*
X164358000Y-92452323D02*
X156642000Y-92452323D01*
X164323000Y-92492323D02*
X156677000Y-92492323D01*
X164288000Y-92532323D02*
X156712000Y-92532323D01*
X164252000Y-92572323D02*
X156748000Y-92572323D01*
X164216000Y-92612323D02*
X156784000Y-92612323D01*
X164178000Y-92652323D02*
X156822000Y-92652323D01*
X164140000Y-92692323D02*
X156860000Y-92692323D01*
X164101000Y-92732323D02*
X156899000Y-92732323D01*
X164061000Y-92772323D02*
X156939000Y-92772323D01*
X164020000Y-92812323D02*
X156980000Y-92812323D01*
X163978000Y-92852323D02*
X157022000Y-92852323D01*
X163935000Y-92892323D02*
X157065000Y-92892323D01*
X163891000Y-92932323D02*
X157109000Y-92932323D01*
X163847000Y-92972323D02*
X157153000Y-92972323D01*
X163801000Y-93012323D02*
X157199000Y-93012323D01*
X163754000Y-93052323D02*
X157246000Y-93052323D01*
X163705000Y-93092323D02*
X157295000Y-93092323D01*
X163656000Y-93132323D02*
X157344000Y-93132323D01*
X163605000Y-93172323D02*
X157395000Y-93172323D01*
X163553000Y-93212323D02*
X157447000Y-93212323D01*
X163500000Y-93252323D02*
X157500000Y-93252323D01*
X163445000Y-93292323D02*
X157555000Y-93292323D01*
X163388000Y-93332323D02*
X157612000Y-93332323D01*
X163330000Y-93372323D02*
X157670000Y-93372323D01*
X163270000Y-93412323D02*
X157730000Y-93412323D01*
X163208000Y-93452323D02*
X157792000Y-93452323D01*
X163144000Y-93492323D02*
X157856000Y-93492323D01*
X163078000Y-93532323D02*
X157922000Y-93532323D01*
X163010000Y-93572323D02*
X157990000Y-93572323D01*
X162939000Y-93612323D02*
X158061000Y-93612323D01*
X162865000Y-93652323D02*
X158135000Y-93652323D01*
X162788000Y-93692323D02*
X158212000Y-93692323D01*
X162708000Y-93732323D02*
X158292000Y-93732323D01*
X162624000Y-93772323D02*
X158376000Y-93772323D01*
X162537000Y-93812323D02*
X158463000Y-93812323D01*
X162444000Y-93852323D02*
X158556000Y-93852323D01*
X162346000Y-93892323D02*
X158654000Y-93892323D01*
X162242000Y-93932323D02*
X158758000Y-93932323D01*
X162130000Y-93972323D02*
X158870000Y-93972323D01*
X162009000Y-94012323D02*
X158991000Y-94012323D01*
X161877000Y-94052323D02*
X159123000Y-94052323D01*
X161730000Y-94092323D02*
X159270000Y-94092323D01*
X161562000Y-94132323D02*
X159438000Y-94132323D01*
X161362000Y-94172323D02*
X159638000Y-94172323D01*
X161099000Y-94212323D02*
X159901000Y-94212323D01*
X165620000Y-89132323D02*
G75*
G02*
X155380000Y-89132323I-5120000J0D01*
G01*
X155380000Y-89132323D02*
G75*
G02*
X165620000Y-89132323I5120000J0D01*
G01*
%TO.C,R1*%
X173080000Y-87120000D02*
X173080000Y-90960000D01*
X174920000Y-87120000D02*
X174920000Y-90960000D01*
%TO.C,J1*%
X128420000Y-91000000D02*
X129030000Y-90560000D01*
X129030000Y-91440000D01*
X128420000Y-91000000D01*
G36*
X129030000Y-91440000D02*
G01*
X128420000Y-91000000D01*
X129030000Y-90560000D01*
X129030000Y-91440000D01*
G37*
X128420000Y-83380000D02*
X128420000Y-90700000D01*
X120380000Y-83380000D02*
X128420000Y-83380000D01*
X125000000Y-84188000D02*
X125000000Y-83380000D01*
X124000000Y-84188000D02*
X124000000Y-83380000D01*
X126300000Y-85457000D02*
X126300000Y-83380000D01*
X126300000Y-89120000D02*
X126300000Y-86543000D01*
X125000000Y-89120000D02*
X125000000Y-87812000D01*
X124000000Y-89120000D02*
X124000000Y-87812000D01*
X128420000Y-91300000D02*
X128420000Y-94120000D01*
X128420000Y-94120000D02*
X120380000Y-94120000D01*
X126300000Y-94120000D02*
X126300000Y-92880000D01*
X125000000Y-94120000D02*
X125000000Y-92880000D01*
X124000000Y-94120000D02*
X124000000Y-92880000D01*
X120380000Y-94120000D02*
X120380000Y-83380000D01*
%TO.C,D1*%
X136530000Y-73360000D02*
X139470000Y-73360000D01*
X139470000Y-78800000D01*
X136530000Y-78800000D01*
X136530000Y-73360000D01*
X138000000Y-72340000D02*
X138000000Y-73360000D01*
X136530000Y-77780000D02*
X139470000Y-77780000D01*
X136530000Y-77900000D02*
X139470000Y-77900000D01*
X136530000Y-78020000D02*
X139470000Y-78020000D01*
X138000000Y-79820000D02*
X138000000Y-78800000D01*
%TO.C,J2*%
X189152500Y-83630000D02*
X189152500Y-94370000D01*
X185532500Y-83630000D02*
X185532500Y-84870000D01*
X184532500Y-83630000D02*
X184532500Y-84870000D01*
X183232500Y-83630000D02*
X183232500Y-84870000D01*
X181112500Y-83630000D02*
X189152500Y-83630000D01*
X181112500Y-86450000D02*
X181112500Y-83630000D01*
X185532500Y-88630000D02*
X185532500Y-89938000D01*
X184532500Y-88630000D02*
X184532500Y-89938000D01*
X183232500Y-88630000D02*
X183232500Y-91207000D01*
X183232500Y-92293000D02*
X183232500Y-94370000D01*
X185532500Y-93562000D02*
X185532500Y-94370000D01*
X184532500Y-93562000D02*
X184532500Y-94370000D01*
X189152500Y-94370000D02*
X181112500Y-94370000D01*
X181112500Y-94370000D02*
X181112500Y-87050000D01*
X181112500Y-86750000D02*
X180502500Y-87190000D01*
X180502500Y-86310000D01*
X181112500Y-86750000D01*
G36*
X181112500Y-86750000D02*
G01*
X180502500Y-87190000D01*
X180502500Y-86310000D01*
X181112500Y-86750000D01*
G37*
%TO.C,D4*%
X150000000Y-98340000D02*
X150000000Y-99360000D01*
X151470000Y-100140000D02*
X148530000Y-100140000D01*
X151470000Y-100260000D02*
X148530000Y-100260000D01*
X151470000Y-100380000D02*
X148530000Y-100380000D01*
X150000000Y-105820000D02*
X150000000Y-104800000D01*
X148530000Y-99360000D02*
X151470000Y-99360000D01*
X151470000Y-104800000D01*
X148530000Y-104800000D01*
X148530000Y-99360000D01*
%TO.C,D3*%
X149500000Y-71840000D02*
X149500000Y-72860000D01*
X150970000Y-73640000D02*
X148030000Y-73640000D01*
X150970000Y-73760000D02*
X148030000Y-73760000D01*
X150970000Y-73880000D02*
X148030000Y-73880000D01*
X149500000Y-79320000D02*
X149500000Y-78300000D01*
X148030000Y-72860000D02*
X150970000Y-72860000D01*
X150970000Y-78300000D01*
X148030000Y-78300000D01*
X148030000Y-72860000D01*
%TD*%
M02*
