%TF.GenerationSoftware,KiCad,Pcbnew,10.0.3*%
%TF.CreationDate,2026-06-26T14:54:03+05:30*%
%TF.ProjectId,Rectifier-1,52656374-6966-4696-9572-2d312e6b6963,rev?*%
%TF.SameCoordinates,Original*%
%TF.FileFunction,Copper,L1,Top*%
%TF.FilePolarity,Positive*%
%FSLAX46Y46*%
G04 Gerber Fmt 4.6, Leading zero omitted, Abs format (unit mm)*
G04 Created by KiCad (PCBNEW 10.0.3) date 2026-06-26 14:54:03*
%MOMM*%
%LPD*%
G01*
G04 APERTURE LIST*
G04 Aperture macros list*
%AMRoundRect*
0 Rectangle with rounded corners*
0 $1 Rounding radius*
0 $2 $3 $4 $5 $6 $7 $8 $9 X,Y pos of 4 corners*
0 Add a 4 corners polygon primitive as box body*
4,1,4,$2,$3,$4,$5,$6,$7,$8,$9,$2,$3,0*
0 Add four circle primitives for the rounded corners*
1,1,$1+$1,$2,$3*
1,1,$1+$1,$4,$5*
1,1,$1+$1,$6,$7*
1,1,$1+$1,$8,$9*
0 Add four rect primitives between the rounded corners*
20,1,$1+$1,$2,$3,$4,$5,0*
20,1,$1+$1,$4,$5,$6,$7,0*
20,1,$1+$1,$6,$7,$8,$9,0*
20,1,$1+$1,$8,$9,$2,$3,0*%
G04 Aperture macros list end*
%TA.AperFunction,ComponentPad*%
%ADD10C,2.200000*%
%TD*%
%TA.AperFunction,ComponentPad*%
%ADD11RoundRect,0.249999X0.850001X-0.850001X0.850001X0.850001X-0.850001X0.850001X-0.850001X-0.850001X0*%
%TD*%
%TA.AperFunction,ComponentPad*%
%ADD12RoundRect,0.250000X-0.750000X0.750000X-0.750000X-0.750000X0.750000X-0.750000X0.750000X0.750000X0*%
%TD*%
%TA.AperFunction,ComponentPad*%
%ADD13C,2.000000*%
%TD*%
%TA.AperFunction,ComponentPad*%
%ADD14C,1.400000*%
%TD*%
%TA.AperFunction,ComponentPad*%
%ADD15C,2.800000*%
%TD*%
%TA.AperFunction,ComponentPad*%
%ADD16RoundRect,0.250001X1.149999X-1.149999X1.149999X1.149999X-1.149999X1.149999X-1.149999X-1.149999X0*%
%TD*%
%TA.AperFunction,ComponentPad*%
%ADD17RoundRect,0.250001X-1.149999X1.149999X-1.149999X-1.149999X1.149999X-1.149999X1.149999X1.149999X0*%
%TD*%
%TA.AperFunction,ComponentPad*%
%ADD18RoundRect,0.249999X-0.850001X0.850001X-0.850001X-0.850001X0.850001X-0.850001X0.850001X0.850001X0*%
%TD*%
%TA.AperFunction,Conductor*%
%ADD19C,1.000000*%
%TD*%
G04 APERTURE END LIST*
D10*
%TO.P,D2,2,A_2*%
%TO.N,GND*%
X137500000Y-97000000D03*
D11*
%TO.P,D2,1,K_1*%
%TO.N,Net-(D1-A)*%
X137500000Y-107160000D03*
%TD*%
D12*
%TO.P,C1,1*%
%TO.N,Net-(D1-K)*%
X160500000Y-87232323D03*
D13*
%TO.P,C1,2*%
%TO.N,GND*%
X160500000Y-91032323D03*
%TD*%
D14*
%TO.P,R1,2*%
%TO.N,GND*%
X174000000Y-91580000D03*
%TO.P,R1,1*%
%TO.N,Net-(D1-K)*%
X174000000Y-86500000D03*
%TD*%
D15*
%TO.P,J1,2,Pin_2_2*%
%TO.N,Net-(D1-A)*%
X124500000Y-86000000D03*
D16*
%TO.P,J1,1,Pin_1_1*%
%TO.N,Net-(D3-A)*%
X124500000Y-91000000D03*
%TD*%
D10*
%TO.P,D1,2,A_2*%
%TO.N,Net-(D1-A)*%
X138000000Y-71000000D03*
D11*
%TO.P,D1,1,K_1*%
%TO.N,Net-(D1-K)*%
X138000000Y-81160000D03*
%TD*%
D17*
%TO.P,J2,1,Pin_1_1*%
%TO.N,Net-(D1-K)*%
X185032500Y-86750000D03*
D15*
%TO.P,J2,2,Pin_2_2*%
%TO.N,GND*%
X185032500Y-91750000D03*
%TD*%
D18*
%TO.P,D4,1,K_1*%
%TO.N,Net-(D3-A)*%
X150000000Y-97000000D03*
D10*
%TO.P,D4,2,A_2*%
%TO.N,GND*%
X150000000Y-107160000D03*
%TD*%
D18*
%TO.P,D3,1,K_1*%
%TO.N,Net-(D1-K)*%
X149500000Y-70500000D03*
D10*
%TO.P,D3,2,A_2*%
%TO.N,Net-(D3-A)*%
X149500000Y-80660000D03*
%TD*%
%TO.N,GND*%
D19*
X147660000Y-107160000D02*
X137500000Y-97000000D01*
X150000000Y-107160000D02*
X147660000Y-107160000D01*
X161047677Y-91580000D02*
X160500000Y-91032323D01*
X174000000Y-91580000D02*
X161047677Y-91580000D01*
X174170000Y-91750000D02*
X174000000Y-91580000D01*
X185032500Y-91750000D02*
X174170000Y-91750000D01*
%TO.N,Net-(D1-K)*%
X174750000Y-86750000D02*
X185032500Y-86750000D01*
X174500000Y-86500000D02*
X174750000Y-86750000D01*
X174000000Y-86500000D02*
X174500000Y-86500000D01*
X173267677Y-87232323D02*
X174000000Y-86500000D01*
X160500000Y-87232323D02*
X173267677Y-87232323D01*
X138840000Y-81160000D02*
X149500000Y-70500000D01*
X138000000Y-81160000D02*
X138840000Y-81160000D01*
%TO.N,Net-(D1-A)*%
X138000000Y-72500000D02*
X138000000Y-71000000D01*
X124500000Y-86000000D02*
X138000000Y-72500000D01*
%TO.N,GND*%
X150000000Y-101532323D02*
X150000000Y-107160000D01*
X160500000Y-91032323D02*
X150000000Y-101532323D01*
%TO.N,Net-(D1-K)*%
X149500000Y-70500000D02*
X149500000Y-76232323D01*
X149500000Y-76232323D02*
X160500000Y-87232323D01*
%TO.N,Net-(D1-A)*%
X124500000Y-86000000D02*
X134000000Y-95500000D01*
X134000000Y-95500000D02*
X134000000Y-101500000D01*
X134000000Y-101500000D02*
X137500000Y-105000000D01*
X137500000Y-105000000D02*
X137500000Y-107160000D01*
%TD*%
%TA.AperFunction,Conductor*%
%TO.N,GND*%
G36*
X196942539Y-64020185D02*
G01*
X196988294Y-64072989D01*
X196999500Y-64124500D01*
X196999500Y-112875500D01*
X196979815Y-112942539D01*
X196927011Y-112988294D01*
X196875500Y-112999500D01*
X128146846Y-112999500D01*
X128079807Y-112979815D01*
X128077060Y-112977998D01*
X116554714Y-105132995D01*
X116510377Y-105078995D01*
X116500500Y-105030497D01*
X116500500Y-85875441D01*
X122599500Y-85875441D01*
X122599500Y-86124558D01*
X122599501Y-86124575D01*
X122632017Y-86371561D01*
X122696498Y-86612207D01*
X122791830Y-86842361D01*
X122791837Y-86842376D01*
X122916400Y-87058126D01*
X123068060Y-87255774D01*
X123068066Y-87255781D01*
X123244218Y-87431933D01*
X123244225Y-87431939D01*
X123441873Y-87583599D01*
X123657623Y-87708162D01*
X123657638Y-87708169D01*
X123756825Y-87749253D01*
X123887793Y-87803502D01*
X124128435Y-87867982D01*
X124375435Y-87900500D01*
X124375442Y-87900500D01*
X124624558Y-87900500D01*
X124624565Y-87900500D01*
X124871565Y-87867982D01*
X124871573Y-87867979D01*
X124874529Y-87867392D01*
X124875432Y-87867472D01*
X124875590Y-87867452D01*
X124875594Y-87867487D01*
X124944121Y-87873616D01*
X124986407Y-87901327D01*
X126019534Y-88934454D01*
X126053019Y-88995777D01*
X126048035Y-89065469D01*
X126006163Y-89121402D01*
X125940699Y-89145819D01*
X125892850Y-89139841D01*
X125802799Y-89110001D01*
X125802795Y-89110000D01*
X125700015Y-89099500D01*
X125700008Y-89099500D01*
X123299992Y-89099500D01*
X123299984Y-89099500D01*
X123197204Y-89110000D01*
X123197203Y-89110001D01*
X123030664Y-89165186D01*
X123030662Y-89165187D01*
X122881348Y-89257286D01*
X122881344Y-89257289D01*
X122757289Y-89381344D01*
X122757286Y-89381348D01*
X122665187Y-89530662D01*
X122665186Y-89530664D01*
X122610001Y-89697203D01*
X122610000Y-89697204D01*
X122599500Y-89799984D01*
X122599500Y-92200015D01*
X122610000Y-92302795D01*
X122610001Y-92302796D01*
X122665186Y-92469335D01*
X122665187Y-92469337D01*
X122757286Y-92618651D01*
X122757289Y-92618655D01*
X122881344Y-92742710D01*
X122881348Y-92742713D01*
X123030662Y-92834812D01*
X123030664Y-92834813D01*
X123030666Y-92834814D01*
X123197203Y-92889999D01*
X123299992Y-92900500D01*
X123299997Y-92900500D01*
X125700003Y-92900500D01*
X125700008Y-92900500D01*
X125802797Y-92889999D01*
X125969334Y-92834814D01*
X126118655Y-92742711D01*
X126242711Y-92618655D01*
X126334814Y-92469334D01*
X126389999Y-92302797D01*
X126400500Y-92200008D01*
X126400500Y-89799992D01*
X126389999Y-89697203D01*
X126360157Y-89607148D01*
X126357756Y-89537322D01*
X126393488Y-89477280D01*
X126456008Y-89446087D01*
X126525468Y-89453648D01*
X126565545Y-89480465D01*
X132963181Y-95878101D01*
X132996666Y-95939424D01*
X132999500Y-95965782D01*
X132999500Y-101598541D01*
X132999500Y-101598543D01*
X132999499Y-101598543D01*
X133037947Y-101791829D01*
X133037950Y-101791839D01*
X133113364Y-101973907D01*
X133113371Y-101973920D01*
X133222859Y-102137780D01*
X133222860Y-102137781D01*
X133222861Y-102137782D01*
X133362218Y-102277139D01*
X133362219Y-102277139D01*
X133369286Y-102284206D01*
X133369285Y-102284206D01*
X133369289Y-102284209D01*
X136463181Y-105378101D01*
X136477884Y-105405028D01*
X136494477Y-105430847D01*
X136495368Y-105437047D01*
X136496666Y-105439424D01*
X136499500Y-105465782D01*
X136499500Y-105479698D01*
X136479815Y-105546737D01*
X136427011Y-105592492D01*
X136414505Y-105597404D01*
X136330665Y-105625186D01*
X136330662Y-105625187D01*
X136181342Y-105717289D01*
X136057289Y-105841342D01*
X135965187Y-105990662D01*
X135965186Y-105990665D01*
X135910001Y-106157202D01*
X135910001Y-106157203D01*
X135910000Y-106157203D01*
X135899500Y-106259982D01*
X135899500Y-108060017D01*
X135910000Y-108162796D01*
X135910001Y-108162798D01*
X135965186Y-108329335D01*
X136057288Y-108478656D01*
X136181344Y-108602712D01*
X136330665Y-108694814D01*
X136497202Y-108749999D01*
X136599990Y-108760500D01*
X136599995Y-108760500D01*
X138400005Y-108760500D01*
X138400010Y-108760500D01*
X138502798Y-108749999D01*
X138669335Y-108694814D01*
X138818656Y-108602712D01*
X138942712Y-108478656D01*
X139034814Y-108329335D01*
X139089999Y-108162798D01*
X139100500Y-108060010D01*
X139100500Y-107034071D01*
X148400000Y-107034071D01*
X148400000Y-107285928D01*
X148439397Y-107534669D01*
X148517219Y-107774184D01*
X148631557Y-107998583D01*
X148705748Y-108100697D01*
X148705748Y-108100698D01*
X149476212Y-107330234D01*
X149487482Y-107372292D01*
X149559890Y-107497708D01*
X149662292Y-107600110D01*
X149787708Y-107672518D01*
X149829765Y-107683787D01*
X149059300Y-108454250D01*
X149161416Y-108528442D01*
X149385815Y-108642780D01*
X149625330Y-108720602D01*
X149874072Y-108760000D01*
X150125928Y-108760000D01*
X150374669Y-108720602D01*
X150614184Y-108642780D01*
X150838575Y-108528446D01*
X150838581Y-108528442D01*
X150940697Y-108454250D01*
X150940698Y-108454250D01*
X150170234Y-107683787D01*
X150212292Y-107672518D01*
X150337708Y-107600110D01*
X150440110Y-107497708D01*
X150512518Y-107372292D01*
X150523787Y-107330234D01*
X151294250Y-108100698D01*
X151294250Y-108100697D01*
X151368442Y-107998581D01*
X151368446Y-107998575D01*
X151482780Y-107774184D01*
X151560602Y-107534669D01*
X151600000Y-107285928D01*
X151600000Y-107034071D01*
X151560602Y-106785330D01*
X151482780Y-106545815D01*
X151368442Y-106321416D01*
X151294250Y-106219301D01*
X151294250Y-106219300D01*
X150523787Y-106989764D01*
X150512518Y-106947708D01*
X150440110Y-106822292D01*
X150337708Y-106719890D01*
X150212292Y-106647482D01*
X150170232Y-106636212D01*
X150940698Y-105865748D01*
X150838583Y-105791557D01*
X150614184Y-105677219D01*
X150374669Y-105599397D01*
X150125928Y-105560000D01*
X149874072Y-105560000D01*
X149625330Y-105599397D01*
X149385815Y-105677219D01*
X149161413Y-105791559D01*
X149059301Y-105865747D01*
X149059300Y-105865748D01*
X149829765Y-106636212D01*
X149787708Y-106647482D01*
X149662292Y-106719890D01*
X149559890Y-106822292D01*
X149487482Y-106947708D01*
X149476212Y-106989765D01*
X148705748Y-106219300D01*
X148705747Y-106219301D01*
X148631559Y-106321413D01*
X148517219Y-106545815D01*
X148439397Y-106785330D01*
X148400000Y-107034071D01*
X139100500Y-107034071D01*
X139100500Y-106259990D01*
X139089999Y-106157202D01*
X139034814Y-105990665D01*
X138942712Y-105841344D01*
X138818656Y-105717288D01*
X138669335Y-105625186D01*
X138585495Y-105597404D01*
X138528050Y-105557631D01*
X138501228Y-105493114D01*
X138500500Y-105479698D01*
X138500500Y-104901456D01*
X138462052Y-104708170D01*
X138462051Y-104708169D01*
X138462051Y-104708165D01*
X138462049Y-104708160D01*
X138386635Y-104526092D01*
X138386628Y-104526079D01*
X138277140Y-104362219D01*
X138277139Y-104362218D01*
X138137782Y-104222861D01*
X138137781Y-104222860D01*
X135036819Y-101121898D01*
X135003334Y-101060575D01*
X135000500Y-101034217D01*
X135000500Y-96874071D01*
X135900000Y-96874071D01*
X135900000Y-97125928D01*
X135939397Y-97374669D01*
X136017219Y-97614184D01*
X136131557Y-97838583D01*
X136205748Y-97940697D01*
X136205748Y-97940698D01*
X136976212Y-97170234D01*
X136987482Y-97212292D01*
X137059890Y-97337708D01*
X137162292Y-97440110D01*
X137287708Y-97512518D01*
X137329765Y-97523787D01*
X136559300Y-98294250D01*
X136661416Y-98368442D01*
X136885815Y-98482780D01*
X137125330Y-98560602D01*
X137374072Y-98600000D01*
X137625928Y-98600000D01*
X137874669Y-98560602D01*
X138114184Y-98482780D01*
X138338575Y-98368446D01*
X138338581Y-98368442D01*
X138440697Y-98294250D01*
X138440698Y-98294250D01*
X137670234Y-97523787D01*
X137712292Y-97512518D01*
X137837708Y-97440110D01*
X137940110Y-97337708D01*
X138012518Y-97212292D01*
X138023787Y-97170234D01*
X138794250Y-97940698D01*
X138794250Y-97940697D01*
X138868442Y-97838581D01*
X138868446Y-97838575D01*
X138982780Y-97614184D01*
X139060602Y-97374669D01*
X139100000Y-97125928D01*
X139100000Y-96874071D01*
X139060602Y-96625330D01*
X138982780Y-96385815D01*
X138868442Y-96161416D01*
X138823807Y-96099982D01*
X148399500Y-96099982D01*
X148399500Y-97900017D01*
X148410000Y-98002796D01*
X148410001Y-98002798D01*
X148465186Y-98169335D01*
X148557288Y-98318656D01*
X148681344Y-98442712D01*
X148830665Y-98534814D01*
X148997202Y-98589999D01*
X149099990Y-98600500D01*
X149099995Y-98600500D01*
X150900005Y-98600500D01*
X150900010Y-98600500D01*
X151002798Y-98589999D01*
X151169335Y-98534814D01*
X151318656Y-98442712D01*
X151442712Y-98318656D01*
X151534814Y-98169335D01*
X151589999Y-98002798D01*
X151600500Y-97900010D01*
X151600500Y-96099990D01*
X151589999Y-95997202D01*
X151534814Y-95830665D01*
X151442712Y-95681344D01*
X151318656Y-95557288D01*
X151169335Y-95465186D01*
X151002798Y-95410001D01*
X151002796Y-95410000D01*
X150900017Y-95399500D01*
X150900010Y-95399500D01*
X149099990Y-95399500D01*
X149099982Y-95399500D01*
X148997203Y-95410000D01*
X148997202Y-95410001D01*
X148914669Y-95437349D01*
X148830667Y-95465185D01*
X148830662Y-95465187D01*
X148681342Y-95557289D01*
X148557289Y-95681342D01*
X148465187Y-95830662D01*
X148465186Y-95830665D01*
X148410001Y-95997202D01*
X148410001Y-95997203D01*
X148410000Y-95997203D01*
X148399500Y-96099982D01*
X138823807Y-96099982D01*
X138794250Y-96059301D01*
X138794250Y-96059300D01*
X138023787Y-96829764D01*
X138012518Y-96787708D01*
X137940110Y-96662292D01*
X137837708Y-96559890D01*
X137712292Y-96487482D01*
X137670232Y-96476212D01*
X138440698Y-95705748D01*
X138338583Y-95631557D01*
X138114184Y-95517219D01*
X137874669Y-95439397D01*
X137625928Y-95400000D01*
X137374072Y-95400000D01*
X137125330Y-95439397D01*
X136885815Y-95517219D01*
X136661413Y-95631559D01*
X136559301Y-95705747D01*
X136559300Y-95705748D01*
X137329765Y-96476212D01*
X137287708Y-96487482D01*
X137162292Y-96559890D01*
X137059890Y-96662292D01*
X136987482Y-96787708D01*
X136976212Y-96829765D01*
X136205748Y-96059300D01*
X136205747Y-96059301D01*
X136131559Y-96161413D01*
X136017219Y-96385815D01*
X135939397Y-96625330D01*
X135900000Y-96874071D01*
X135000500Y-96874071D01*
X135000500Y-95401456D01*
X134962052Y-95208170D01*
X134962051Y-95208169D01*
X134962051Y-95208165D01*
X134962049Y-95208160D01*
X134886635Y-95026092D01*
X134886628Y-95026079D01*
X134777139Y-94862218D01*
X134777136Y-94862214D01*
X134634686Y-94719764D01*
X134634655Y-94719735D01*
X132502802Y-92587882D01*
X173345669Y-92587882D01*
X173345670Y-92587883D01*
X173371059Y-92606329D01*
X173539362Y-92692085D01*
X173718997Y-92750451D01*
X173905553Y-92780000D01*
X174094447Y-92780000D01*
X174281002Y-92750451D01*
X174460637Y-92692085D01*
X174628937Y-92606331D01*
X174654328Y-92587883D01*
X174654328Y-92587882D01*
X174000001Y-91933554D01*
X174000000Y-91933554D01*
X173345669Y-92587882D01*
X132502802Y-92587882D01*
X130829190Y-90914270D01*
X159000000Y-90914270D01*
X159000000Y-91150375D01*
X159036934Y-91383570D01*
X159109897Y-91608125D01*
X159217087Y-91818497D01*
X159277338Y-91901427D01*
X159277340Y-91901428D01*
X160017037Y-91161731D01*
X160034075Y-91225316D01*
X160099901Y-91339330D01*
X160192993Y-91432422D01*
X160307007Y-91498248D01*
X160370590Y-91515285D01*
X159630893Y-92254981D01*
X159713828Y-92315237D01*
X159924197Y-92422425D01*
X160148752Y-92495388D01*
X160148751Y-92495388D01*
X160381948Y-92532323D01*
X160618052Y-92532323D01*
X160851247Y-92495388D01*
X161074983Y-92422692D01*
X161074984Y-92422691D01*
X161074986Y-92422691D01*
X161075803Y-92422425D01*
X161286163Y-92315241D01*
X161286169Y-92315237D01*
X161369104Y-92254981D01*
X161369105Y-92254981D01*
X160629408Y-91515285D01*
X160692993Y-91498248D01*
X160807007Y-91432422D01*
X160900099Y-91339330D01*
X160965925Y-91225316D01*
X160982962Y-91161732D01*
X161722658Y-91901428D01*
X161722658Y-91901427D01*
X161782914Y-91818492D01*
X161782918Y-91818486D01*
X161890102Y-91608125D01*
X161929929Y-91485552D01*
X172800000Y-91485552D01*
X172800000Y-91674447D01*
X172829548Y-91861002D01*
X172887914Y-92040637D01*
X172973666Y-92208933D01*
X172992116Y-92234328D01*
X173646446Y-91580000D01*
X173646446Y-91579999D01*
X173600369Y-91533922D01*
X173650000Y-91533922D01*
X173650000Y-91626078D01*
X173673852Y-91715095D01*
X173719930Y-91794905D01*
X173785095Y-91860070D01*
X173864905Y-91906148D01*
X173953922Y-91930000D01*
X174046078Y-91930000D01*
X174135095Y-91906148D01*
X174214905Y-91860070D01*
X174280070Y-91794905D01*
X174326148Y-91715095D01*
X174350000Y-91626078D01*
X174350000Y-91579999D01*
X174353554Y-91579999D01*
X174353554Y-91580000D01*
X175007882Y-92234328D01*
X175007883Y-92234328D01*
X175026331Y-92208937D01*
X175112085Y-92040637D01*
X175170451Y-91861002D01*
X175200000Y-91674447D01*
X175200000Y-91625466D01*
X183132500Y-91625466D01*
X183132500Y-91874533D01*
X183165008Y-92121463D01*
X183229473Y-92362049D01*
X183324783Y-92592148D01*
X183324788Y-92592159D01*
X183449313Y-92807841D01*
X183449319Y-92807849D01*
X183523900Y-92905045D01*
X184431458Y-91997487D01*
X184456478Y-92057890D01*
X184527612Y-92164351D01*
X184618149Y-92254888D01*
X184724610Y-92326022D01*
X184785011Y-92351041D01*
X183877453Y-93258598D01*
X183974650Y-93333180D01*
X183974658Y-93333186D01*
X184190340Y-93457711D01*
X184190351Y-93457716D01*
X184420450Y-93553026D01*
X184661036Y-93617491D01*
X184907966Y-93650000D01*
X185157034Y-93650000D01*
X185403963Y-93617491D01*
X185644549Y-93553026D01*
X185874648Y-93457716D01*
X185874659Y-93457711D01*
X186090355Y-93333178D01*
X186187545Y-93258600D01*
X186187545Y-93258597D01*
X185279988Y-92351041D01*
X185340390Y-92326022D01*
X185446851Y-92254888D01*
X185537388Y-92164351D01*
X185608522Y-92057890D01*
X185633541Y-91997488D01*
X186541097Y-92905045D01*
X186541100Y-92905045D01*
X186615678Y-92807855D01*
X186740211Y-92592159D01*
X186740216Y-92592148D01*
X186835526Y-92362049D01*
X186899991Y-92121463D01*
X186932500Y-91874533D01*
X186932500Y-91625466D01*
X186899991Y-91378536D01*
X186835526Y-91137950D01*
X186740216Y-90907851D01*
X186740211Y-90907840D01*
X186615686Y-90692158D01*
X186615680Y-90692150D01*
X186541098Y-90594953D01*
X185633541Y-91502510D01*
X185608522Y-91442110D01*
X185537388Y-91335649D01*
X185446851Y-91245112D01*
X185340390Y-91173978D01*
X185279987Y-91148957D01*
X186187545Y-90241400D01*
X186090349Y-90166819D01*
X186090341Y-90166813D01*
X185874659Y-90042288D01*
X185874648Y-90042283D01*
X185644549Y-89946973D01*
X185403963Y-89882508D01*
X185157034Y-89850000D01*
X184907966Y-89850000D01*
X184661036Y-89882508D01*
X184420450Y-89946973D01*
X184190351Y-90042283D01*
X184190347Y-90042285D01*
X183974643Y-90166823D01*
X183877453Y-90241399D01*
X183877453Y-90241400D01*
X184785011Y-91148958D01*
X184724610Y-91173978D01*
X184618149Y-91245112D01*
X184527612Y-91335649D01*
X184456478Y-91442110D01*
X184431458Y-91502511D01*
X183523900Y-90594953D01*
X183523899Y-90594953D01*
X183449323Y-90692143D01*
X183324785Y-90907847D01*
X183324783Y-90907851D01*
X183229473Y-91137950D01*
X183165008Y-91378536D01*
X183132500Y-91625466D01*
X175200000Y-91625466D01*
X175200000Y-91485552D01*
X175170451Y-91298997D01*
X175112085Y-91119362D01*
X175026329Y-90951059D01*
X175007883Y-90925670D01*
X175007882Y-90925669D01*
X174353554Y-91579999D01*
X174350000Y-91579999D01*
X174350000Y-91533922D01*
X174326148Y-91444905D01*
X174280070Y-91365095D01*
X174214905Y-91299930D01*
X174135095Y-91253852D01*
X174046078Y-91230000D01*
X173953922Y-91230000D01*
X173864905Y-91253852D01*
X173785095Y-91299930D01*
X173719930Y-91365095D01*
X173673852Y-91444905D01*
X173650000Y-91533922D01*
X173600369Y-91533922D01*
X172992116Y-90925669D01*
X172992116Y-90925670D01*
X172973669Y-90951060D01*
X172887914Y-91119362D01*
X172829548Y-91298997D01*
X172800000Y-91485552D01*
X161929929Y-91485552D01*
X161943961Y-91442368D01*
X161943961Y-91442367D01*
X161963065Y-91383568D01*
X162000000Y-91150375D01*
X162000000Y-90914270D01*
X161963065Y-90681077D01*
X161955468Y-90657694D01*
X161955467Y-90657692D01*
X161927662Y-90572116D01*
X173345669Y-90572116D01*
X174000000Y-91226446D01*
X174000001Y-91226446D01*
X174654328Y-90572116D01*
X174628933Y-90553666D01*
X174460637Y-90467914D01*
X174281002Y-90409548D01*
X174094447Y-90380000D01*
X173905553Y-90380000D01*
X173718997Y-90409548D01*
X173539362Y-90467914D01*
X173371060Y-90553669D01*
X173345670Y-90572116D01*
X173345669Y-90572116D01*
X161927662Y-90572116D01*
X161890102Y-90456520D01*
X161782914Y-90246151D01*
X161722658Y-90163217D01*
X161722658Y-90163216D01*
X160982962Y-90902913D01*
X160965925Y-90839330D01*
X160900099Y-90725316D01*
X160807007Y-90632224D01*
X160692993Y-90566398D01*
X160629409Y-90549360D01*
X161369105Y-89809663D01*
X161369104Y-89809661D01*
X161286174Y-89749410D01*
X161075802Y-89642220D01*
X160851247Y-89569257D01*
X160851248Y-89569257D01*
X160618052Y-89532323D01*
X160381948Y-89532323D01*
X160148752Y-89569257D01*
X159924197Y-89642220D01*
X159713830Y-89749407D01*
X159630894Y-89809663D01*
X160370591Y-90549360D01*
X160307007Y-90566398D01*
X160192993Y-90632224D01*
X160099901Y-90725316D01*
X160034075Y-90839330D01*
X160017037Y-90902914D01*
X159277340Y-90163217D01*
X159217084Y-90246153D01*
X159109897Y-90456520D01*
X159036934Y-90681075D01*
X159000000Y-90914270D01*
X130829190Y-90914270D01*
X126401327Y-86486407D01*
X126367842Y-86425084D01*
X126367392Y-86374529D01*
X126367979Y-86371573D01*
X126367982Y-86371565D01*
X126400500Y-86124565D01*
X126400500Y-85875435D01*
X126367982Y-85628435D01*
X126367977Y-85628417D01*
X126367390Y-85625463D01*
X126367471Y-85624555D01*
X126367452Y-85624410D01*
X126367484Y-85624405D01*
X126373618Y-85555871D01*
X126401325Y-85513593D01*
X131654936Y-80259982D01*
X136399500Y-80259982D01*
X136399500Y-82060017D01*
X136410000Y-82162796D01*
X136410001Y-82162798D01*
X136465186Y-82329335D01*
X136557288Y-82478656D01*
X136681344Y-82602712D01*
X136830665Y-82694814D01*
X136997202Y-82749999D01*
X137099990Y-82760500D01*
X137099995Y-82760500D01*
X138900005Y-82760500D01*
X138900010Y-82760500D01*
X139002798Y-82749999D01*
X139169335Y-82694814D01*
X139318656Y-82602712D01*
X139442712Y-82478656D01*
X139534814Y-82329335D01*
X139589999Y-82162798D01*
X139600500Y-82060010D01*
X139600500Y-81865781D01*
X139620185Y-81798742D01*
X139636819Y-81778100D01*
X140880881Y-80534038D01*
X147899500Y-80534038D01*
X147899500Y-80785961D01*
X147938910Y-81034785D01*
X148016760Y-81274383D01*
X148131132Y-81498848D01*
X148279201Y-81702649D01*
X148279205Y-81702654D01*
X148457345Y-81880794D01*
X148457350Y-81880798D01*
X148635117Y-82009952D01*
X148661155Y-82028870D01*
X148804184Y-82101747D01*
X148885616Y-82143239D01*
X148885618Y-82143239D01*
X148885621Y-82143241D01*
X149125215Y-82221090D01*
X149374038Y-82260500D01*
X149374039Y-82260500D01*
X149625961Y-82260500D01*
X149625962Y-82260500D01*
X149874785Y-82221090D01*
X150114379Y-82143241D01*
X150338845Y-82028870D01*
X150542656Y-81880793D01*
X150720793Y-81702656D01*
X150868870Y-81498845D01*
X150983241Y-81274379D01*
X151061090Y-81034785D01*
X151100500Y-80785962D01*
X151100500Y-80534038D01*
X151061090Y-80285215D01*
X150983241Y-80045621D01*
X150983239Y-80045618D01*
X150983239Y-80045616D01*
X150941747Y-79964184D01*
X150868870Y-79821155D01*
X150793407Y-79717289D01*
X150720798Y-79617350D01*
X150720794Y-79617345D01*
X150542654Y-79439205D01*
X150542649Y-79439201D01*
X150338848Y-79291132D01*
X150338847Y-79291131D01*
X150338845Y-79291130D01*
X150268747Y-79255413D01*
X150114383Y-79176760D01*
X149874785Y-79098910D01*
X149625962Y-79059500D01*
X149374038Y-79059500D01*
X149249626Y-79079205D01*
X149125214Y-79098910D01*
X148885616Y-79176760D01*
X148661151Y-79291132D01*
X148457350Y-79439201D01*
X148457345Y-79439205D01*
X148279205Y-79617345D01*
X148279201Y-79617350D01*
X148131132Y-79821151D01*
X148016760Y-80045616D01*
X147938910Y-80285214D01*
X147899500Y-80534038D01*
X140880881Y-80534038D01*
X142355419Y-79059500D01*
X148287821Y-73127098D01*
X148349142Y-73093615D01*
X148418834Y-73098599D01*
X148474767Y-73140471D01*
X148499184Y-73205935D01*
X148499500Y-73214781D01*
X148499500Y-76330864D01*
X148499500Y-76330866D01*
X148499499Y-76330866D01*
X148537947Y-76524152D01*
X148537950Y-76524162D01*
X148613364Y-76706230D01*
X148613371Y-76706243D01*
X148722860Y-76870104D01*
X148722863Y-76870108D01*
X148866537Y-77013782D01*
X148866559Y-77013802D01*
X158963181Y-87110424D01*
X158996666Y-87171747D01*
X158999500Y-87198105D01*
X158999500Y-88032324D01*
X158999501Y-88032342D01*
X159010000Y-88135119D01*
X159010001Y-88135122D01*
X159063149Y-88295510D01*
X159065186Y-88301657D01*
X159157288Y-88450979D01*
X159281344Y-88575035D01*
X159430666Y-88667137D01*
X159597203Y-88722322D01*
X159699991Y-88732823D01*
X161300008Y-88732822D01*
X161402797Y-88722322D01*
X161569334Y-88667137D01*
X161718656Y-88575035D01*
X161842712Y-88450979D01*
X161934814Y-88301657D01*
X161934815Y-88301654D01*
X161938605Y-88295510D01*
X161940399Y-88296616D01*
X161979687Y-88251986D01*
X162045908Y-88232823D01*
X173366219Y-88232823D01*
X173397243Y-88226651D01*
X173462865Y-88213598D01*
X173559513Y-88194374D01*
X173612842Y-88172284D01*
X173741591Y-88118955D01*
X173905459Y-88009462D01*
X174044816Y-87870105D01*
X174044817Y-87870102D01*
X174051883Y-87863037D01*
X174051886Y-87863033D01*
X174208501Y-87706417D01*
X174269822Y-87672934D01*
X174276776Y-87671627D01*
X174281118Y-87670940D01*
X174281201Y-87670912D01*
X174281232Y-87670912D01*
X174285846Y-87669804D01*
X174286078Y-87670773D01*
X174307191Y-87670168D01*
X174332778Y-87665551D01*
X174346461Y-87669043D01*
X174351040Y-87668912D01*
X174366971Y-87674277D01*
X174382743Y-87680810D01*
X174382744Y-87680811D01*
X174382745Y-87680811D01*
X174458164Y-87712051D01*
X174651454Y-87750499D01*
X174651457Y-87750500D01*
X174651459Y-87750500D01*
X174848540Y-87750500D01*
X183008000Y-87750500D01*
X183075039Y-87770185D01*
X183120794Y-87822989D01*
X183132000Y-87874500D01*
X183132000Y-87950015D01*
X183142500Y-88052795D01*
X183142501Y-88052796D01*
X183197686Y-88219335D01*
X183197687Y-88219337D01*
X183289786Y-88368651D01*
X183289789Y-88368655D01*
X183413844Y-88492710D01*
X183413848Y-88492713D01*
X183563162Y-88584812D01*
X183563164Y-88584813D01*
X183563166Y-88584814D01*
X183729703Y-88639999D01*
X183832492Y-88650500D01*
X183832497Y-88650500D01*
X186232503Y-88650500D01*
X186232508Y-88650500D01*
X186335297Y-88639999D01*
X186501834Y-88584814D01*
X186651155Y-88492711D01*
X186775211Y-88368655D01*
X186867314Y-88219334D01*
X186922499Y-88052797D01*
X186933000Y-87950008D01*
X186933000Y-85549992D01*
X186922499Y-85447203D01*
X186867314Y-85280666D01*
X186775211Y-85131345D01*
X186651155Y-85007289D01*
X186651151Y-85007286D01*
X186501837Y-84915187D01*
X186501835Y-84915186D01*
X186418565Y-84887593D01*
X186335297Y-84860001D01*
X186335295Y-84860000D01*
X186232515Y-84849500D01*
X186232508Y-84849500D01*
X183832492Y-84849500D01*
X183832484Y-84849500D01*
X183729704Y-84860000D01*
X183729703Y-84860001D01*
X183563164Y-84915186D01*
X183563162Y-84915187D01*
X183413848Y-85007286D01*
X183413844Y-85007289D01*
X183289789Y-85131344D01*
X183289786Y-85131348D01*
X183197687Y-85280662D01*
X183197686Y-85280664D01*
X183142501Y-85447203D01*
X183142500Y-85447204D01*
X183132000Y-85549984D01*
X183132000Y-85625500D01*
X183112315Y-85692539D01*
X183059511Y-85738294D01*
X183008000Y-85749500D01*
X175214610Y-85749500D01*
X175147571Y-85729815D01*
X175140641Y-85724771D01*
X174973920Y-85613371D01*
X174973907Y-85613364D01*
X174828456Y-85553117D01*
X174828451Y-85553115D01*
X174820910Y-85549992D01*
X174791836Y-85537949D01*
X174713258Y-85522318D01*
X174709374Y-85521280D01*
X174700019Y-85515585D01*
X174668515Y-85501805D01*
X174629199Y-85473240D01*
X174460836Y-85387454D01*
X174281118Y-85329059D01*
X174094486Y-85299500D01*
X174094481Y-85299500D01*
X173905519Y-85299500D01*
X173905514Y-85299500D01*
X173718881Y-85329059D01*
X173539163Y-85387454D01*
X173370800Y-85473240D01*
X173315263Y-85513591D01*
X173217927Y-85584310D01*
X173217925Y-85584312D01*
X173217924Y-85584312D01*
X173084312Y-85717924D01*
X173084312Y-85717925D01*
X173084310Y-85717927D01*
X173061371Y-85749500D01*
X172973240Y-85870800D01*
X172887454Y-86039163D01*
X172852695Y-86146142D01*
X172813257Y-86203817D01*
X172748898Y-86231015D01*
X172734764Y-86231823D01*
X162045908Y-86231823D01*
X161978869Y-86212138D01*
X161940363Y-86168051D01*
X161938605Y-86169136D01*
X161934814Y-86162989D01*
X161842712Y-86013667D01*
X161718656Y-85889611D01*
X161569334Y-85797509D01*
X161402797Y-85742324D01*
X161402795Y-85742323D01*
X161300016Y-85731823D01*
X161300009Y-85731823D01*
X160465782Y-85731823D01*
X160398743Y-85712138D01*
X160378101Y-85695504D01*
X150536819Y-75854222D01*
X150503334Y-75792899D01*
X150500500Y-75766541D01*
X150500500Y-72180301D01*
X150520185Y-72113262D01*
X150572989Y-72067507D01*
X150585487Y-72062598D01*
X150669335Y-72034814D01*
X150818656Y-71942712D01*
X150942712Y-71818656D01*
X151034814Y-71669335D01*
X151089999Y-71502798D01*
X151100500Y-71400010D01*
X151100500Y-69599990D01*
X151089999Y-69497202D01*
X151034814Y-69330665D01*
X150942712Y-69181344D01*
X150818656Y-69057288D01*
X150669335Y-68965186D01*
X150502798Y-68910001D01*
X150502796Y-68910000D01*
X150400017Y-68899500D01*
X150400010Y-68899500D01*
X148599990Y-68899500D01*
X148599982Y-68899500D01*
X148497203Y-68910000D01*
X148497202Y-68910001D01*
X148414669Y-68937349D01*
X148330667Y-68965185D01*
X148330662Y-68965187D01*
X148181342Y-69057289D01*
X148057289Y-69181342D01*
X147965187Y-69330662D01*
X147965186Y-69330665D01*
X147910001Y-69497202D01*
X147910001Y-69497203D01*
X147910000Y-69497203D01*
X147899500Y-69599982D01*
X147899500Y-70634217D01*
X147879815Y-70701256D01*
X147863181Y-70721898D01*
X139055605Y-79529473D01*
X138994282Y-79562958D01*
X138955323Y-79565150D01*
X138900022Y-79559500D01*
X138900010Y-79559500D01*
X137099990Y-79559500D01*
X137099982Y-79559500D01*
X136997203Y-79570000D01*
X136997202Y-79570001D01*
X136914669Y-79597349D01*
X136830667Y-79625185D01*
X136830662Y-79625187D01*
X136681342Y-79717289D01*
X136557289Y-79841342D01*
X136465187Y-79990662D01*
X136465186Y-79990665D01*
X136410001Y-80157202D01*
X136410001Y-80157203D01*
X136410000Y-80157203D01*
X136399500Y-80259982D01*
X131654936Y-80259982D01*
X138637778Y-73277141D01*
X138637782Y-73277139D01*
X138777139Y-73137782D01*
X138886632Y-72973914D01*
X138962051Y-72791835D01*
X139000500Y-72598541D01*
X139000500Y-72313962D01*
X139020185Y-72246923D01*
X139039623Y-72224650D01*
X139039211Y-72224238D01*
X139115543Y-72147906D01*
X139220793Y-72042656D01*
X139368870Y-71838845D01*
X139483241Y-71614379D01*
X139561090Y-71374785D01*
X139600500Y-71125962D01*
X139600500Y-70874038D01*
X139561090Y-70625215D01*
X139483241Y-70385621D01*
X139483239Y-70385618D01*
X139483239Y-70385616D01*
X139441747Y-70304184D01*
X139368870Y-70161155D01*
X139349952Y-70135117D01*
X139220798Y-69957350D01*
X139220794Y-69957345D01*
X139042654Y-69779205D01*
X139042649Y-69779201D01*
X138838848Y-69631132D01*
X138838847Y-69631131D01*
X138838845Y-69631130D01*
X138768747Y-69595413D01*
X138614383Y-69516760D01*
X138374785Y-69438910D01*
X138125962Y-69399500D01*
X137874038Y-69399500D01*
X137749626Y-69419205D01*
X137625214Y-69438910D01*
X137385616Y-69516760D01*
X137161151Y-69631132D01*
X136957350Y-69779201D01*
X136957345Y-69779205D01*
X136779205Y-69957345D01*
X136779201Y-69957350D01*
X136631132Y-70161151D01*
X136516760Y-70385616D01*
X136438910Y-70625214D01*
X136399500Y-70874038D01*
X136399500Y-71125961D01*
X136438910Y-71374785D01*
X136516760Y-71614383D01*
X136544760Y-71669335D01*
X136620843Y-71818656D01*
X136631132Y-71838848D01*
X136779201Y-72042649D01*
X136779205Y-72042654D01*
X136823134Y-72086583D01*
X136856619Y-72147906D01*
X136851635Y-72217598D01*
X136823134Y-72261945D01*
X124986406Y-84098672D01*
X124925083Y-84132157D01*
X124874541Y-84132610D01*
X124871563Y-84132017D01*
X124624575Y-84099501D01*
X124624570Y-84099500D01*
X124624565Y-84099500D01*
X124375435Y-84099500D01*
X124375429Y-84099500D01*
X124375424Y-84099501D01*
X124128438Y-84132017D01*
X123887792Y-84196498D01*
X123657638Y-84291830D01*
X123657623Y-84291837D01*
X123441873Y-84416400D01*
X123244225Y-84568060D01*
X123244218Y-84568066D01*
X123068066Y-84744218D01*
X123068060Y-84744225D01*
X122916400Y-84941873D01*
X122791837Y-85157623D01*
X122791830Y-85157638D01*
X122696498Y-85387792D01*
X122632017Y-85628438D01*
X122599501Y-85875424D01*
X122599500Y-85875441D01*
X116500500Y-85875441D01*
X116500500Y-74792370D01*
X116520185Y-74725331D01*
X116538621Y-74702922D01*
X127650991Y-64035047D01*
X127712985Y-64002821D01*
X127736865Y-64000500D01*
X196875500Y-64000500D01*
X196942539Y-64020185D01*
G37*
%TD.AperFunction*%
%TD*%
M02*
